<svg xmlns="http://www.w3.org/2000/svg" xmlns:xlink="http://www.w3.org/1999/xlink" height="64" width="64"><defs><linearGradient id="a"><stop offset="0" style="stop-color:#55c1ec;stop-opacity:1"/><stop offset="1" style="stop-color:#3689e6;stop-opacity:1"/></linearGradient><linearGradient id="b"><stop offset="0" style="stop-color:#fff;stop-opacity:1"/><stop offset=".063" style="stop-color:#fff;stop-opacity:.23529412"/><stop offset=".951" style="stop-color:#fff;stop-opacity:.15686275"/><stop offset="1" style="stop-color:#fff;stop-opacity:.39215687"/></linearGradient><linearGradient id="g"><stop offset="0" style="stop-color:#181818;stop-opacity:1"/><stop offset="1" style="stop-color:#181818;stop-opacity:0"/></linearGradient><linearGradient id="e"><stop offset="0" style="stop-color:#181818;stop-opacity:0"/><stop offset=".5" style="stop-color:#181818;stop-opacity:1"/><stop offset="1" style="stop-color:#181818;stop-opacity:0"/></linearGradient><linearGradient id="f"><stop offset="0" style="stop-color:#fafafa;stop-opacity:1"/><stop offset="1" style="stop-color:#e1e1e1;stop-opacity:1"/></linearGradient><linearGradient id="d"><stop style="stop-color:#e9e9e9;stop-opacity:1" offset="0"/><stop style="stop-color:#fff;stop-opacity:1" offset="1"/></linearGradient><linearGradient id="c"><stop style="stop-color:#fff;stop-opacity:1" offset="0"/><stop offset=".508" style="stop-color:#fff;stop-opacity:.23529412"/><stop style="stop-color:#fff;stop-opacity:.15686275" offset=".835"/><stop style="stop-color:#fff;stop-opacity:.39215687" offset="1"/></linearGradient><linearGradient y2="55.053" x2="30.271" y1="10.029" x1="30.271" gradientTransform="matrix(1.11111 0 0 1.25 -3.556 -8)" gradientUnits="userSpaceOnUse" id="m" xlink:href="#a"/><linearGradient y2="43" x2="24" y1="5" x1="24" gradientTransform="matrix(1.43243 0 0 1.43628 -2.378 -2.47)" gradientUnits="userSpaceOnUse" id="l" xlink:href="#b"/><linearGradient y2="44.341" x2="71.204" y1="6.238" x1="71.204" gradientTransform="matrix(-.45946 0 0 .45946 74.959 20.35)" gradientUnits="userSpaceOnUse" id="o" xlink:href="#c"/><linearGradient y2="8.093" x2="38.977" y1="59.968" x1="38.977" gradientTransform="matrix(-.37254 0 0 .37254 53.921 19.334)" gradientUnits="userSpaceOnUse" id="n" xlink:href="#d"/><linearGradient x1="25.058" y1="47.028" x2="25.058" y2="39.999" id="j" xlink:href="#e" gradientUnits="userSpaceOnUse" gradientTransform="matrix(1.57143 0 0 .71429 -5.714 27.929)"/><radialGradient r="27.5" fy="4.342" fx="32" cy="4.342" cx="32" gradientTransform="rotate(90 55.558 -13.527) scale(2.31034)" gradientUnits="userSpaceOnUse" id="k" xlink:href="#f"/><radialGradient cx="4.993" cy="43.5" r="2.5" fx="4.993" fy="43.5" id="h" xlink:href="#g" gradientUnits="userSpaceOnUse" gradientTransform="matrix(2.40454 0 0 1 41.986 15.5)"/><radialGradient cx="4.993" cy="43.5" r="2.5" fx="4.993" fy="43.5" id="i" xlink:href="#g" gradientUnits="userSpaceOnUse" gradientTransform="matrix(2.40454 0 0 1 -22.014 -102.5)"/></defs><path style="opacity:.6;fill:url(#h);fill-opacity:1;stroke:none;stroke-width:1.06199" d="M54 56.5h6v5h-6z"/><path style="opacity:.6;fill:url(#i);fill-opacity:1;stroke:none;stroke-width:1.06199" transform="scale(-1)" d="M-10-61.5h6v5h-6z"/><path style="opacity:.6;fill:url(#j);fill-opacity:1;stroke:none;stroke-width:1.06199" d="M10 56.5h44v5H10z"/><rect width="54" height="54" rx="5.5" ry="5.5" x="5" y="5" style="color:#000;display:inline;overflow:visible;visibility:visible;fill:url(#k);fill-opacity:1;fill-rule:nonzero;stroke:none;stroke-width:1;marker:none;enable-background:accumulate"/><path d="M22 23c-5.54 0-10 4.46-10 10s4.46 10 10 10h20c5.54 0 10-4.46 10-10s-4.46-10-10-10z" style="opacity:.2;color:#000;fill:#fff;fill-opacity:1;stroke:none;stroke-width:2;marker:none;visibility:visible;display:inline;overflow:visible;enable-background:accumulate"/><rect width="53" height="53.142" rx="5" ry="5" x="5.5" y="5.429" style="fill:none;stroke:url(#l);stroke-width:1;stroke-linecap:round;stroke-linejoin:round;stroke-miterlimit:4;stroke-dasharray:none;stroke-dashoffset:0;stroke-opacity:1"/><rect width="55" height="55" rx="6" ry="6" x="4.5" y="4.5" style="color:#000;display:inline;overflow:visible;visibility:visible;opacity:.3;fill:none;stroke:#000;stroke-width:1;stroke-linecap:butt;stroke-linejoin:miter;stroke-miterlimit:4;stroke-dasharray:none;stroke-dashoffset:0;stroke-opacity:1;marker:none;enable-background:accumulate"/><path d="M22 22c-5.54 0-10 4.46-10 10s4.46 10 10 10h20c5.54 0 10-4.46 10-10s-4.46-10-10-10z" style="color:#000;fill:url(#m);fill-opacity:1;stroke:none;stroke-width:2;marker:none;visibility:visible;display:inline;overflow:visible;enable-background:accumulate"/><path d="M22 22c-5.54 0-10 4.46-10 10 0 .168.023.334.031.5A9.96 9.96 0 0 1 22 23h20a9.96 9.96 0 0 1 9.969 9.5c.008-.166.031-.332.031-.5 0-5.54-4.46-10-10-10H22z" style="opacity:.3;color:#000;fill:#0e4774;fill-opacity:1;fill-rule:nonzero;stroke:none;stroke-width:2.40860224;marker:none;visibility:visible;display:inline;overflow:visible;enable-background:accumulate"/><path d="M22.062 23c-5.402 0-9.77 4.194-10.03 9.5A9.96 9.96 0 0 0 22 42h1.062C17.491 42 13 37.986 13 33s4.49-9 10.062-9h17.875C46.51 24 51 28.014 51 33s-4.49 9-10.063 9H42a9.96 9.96 0 0 0 9.969-9.5c-.261-5.306-4.629-9.5-10.032-9.5H22.062z" style="opacity:.15;color:#000;fill:#0e4774;fill-opacity:1;fill-rule:nonzero;stroke:none;stroke-width:2.70967746;marker:none;visibility:visible;display:inline;overflow:visible;enable-background:accumulate"/><path style="opacity:.07;color:#000;fill:#000;fill-opacity:1;fill-rule:nonzero;stroke:none;stroke-width:2;marker:none;visibility:visible;display:inline;overflow:visible;enable-background:accumulate" d="M42 22.5c5.793 0 10.5 4.706 10.5 10.5S47.793 43.5 42 43.5c-5.794 0-10.5-4.706-10.5-10.5S36.206 22.5 42 22.5z"/><path style="color:#000;fill:#000;fill-opacity:1;fill-rule:nonzero;stroke:none;stroke-width:2;marker:none;visibility:visible;display:inline;overflow:visible;enable-background:accumulate;opacity:.15" d="M42 23.5c5.242 0 9.5 4.258 9.5 9.5s-4.258 9.5-9.5 9.5-9.5-4.258-9.5-9.5 4.258-9.5 9.5-9.5z"/><path style="color:#000;fill:url(#n);fill-opacity:1;fill-rule:nonzero;stroke:none;stroke-width:1;marker:none;visibility:visible;display:inline;overflow:visible;enable-background:accumulate" d="M42 22.5c5.242 0 9.5 4.258 9.5 9.5s-4.258 9.5-9.5 9.5-9.5-4.258-9.5-9.5 4.258-9.5 9.5-9.5z"/><path style="color:#000;fill:none;stroke:url(#o);stroke-width:1;stroke-linecap:round;stroke-linejoin:round;stroke-miterlimit:4;stroke-opacity:1;stroke-dasharray:none;stroke-dashoffset:0;marker:none;visibility:visible;display:inline;overflow:visible;enable-background:accumulate" d="M33.5 32a8.5 8.5 0 1 0 17 0 8.5 8.5 0 0 0-17 0h0z"/><path style="opacity:.5;color:#000;fill:none;stroke:#656565;stroke-width:.99999994;stroke-linecap:round;stroke-linejoin:round;stroke-miterlimit:4;stroke-opacity:1;stroke-dasharray:none;stroke-dashoffset:0;marker:none;visibility:visible;display:inline;overflow:visible;enable-background:accumulate" d="M42 22.5c5.242 0 9.5 4.258 9.5 9.5s-4.258 9.5-9.5 9.5-9.5-4.258-9.5-9.5 4.258-9.5 9.5-9.5z"/></svg>