<svg xmlns="http://www.w3.org/2000/svg" xmlns:xlink="http://www.w3.org/1999/xlink" height="64" width="64"><defs><linearGradient gradientTransform="matrix(1.41026 0 0 1.41026 -2.164 7.722)" gradientUnits="userSpaceOnUse" xlink:href="#a" id="E" y2="37.992" x2="24" y1="5" x1="24"/><linearGradient id="a"><stop offset="0" stop-color="#fff"/><stop offset=".063" stop-color="#fff" stop-opacity=".235"/><stop offset=".951" stop-color="#fff" stop-opacity=".157"/><stop offset="1" stop-color="#fff" stop-opacity=".392"/></linearGradient><linearGradient gradientTransform="translate(-2.378 -2.378) scale(1.43243)" gradientUnits="userSpaceOnUse" xlink:href="#b" id="I" y2="43" x2="24" y1="5" x1="24"/><linearGradient id="b"><stop offset="0" stop-color="#fff"/><stop offset=".063" stop-color="#fff" stop-opacity=".235"/><stop offset=".951" stop-color="#fff" stop-opacity=".157"/><stop offset="1" stop-color="#fff" stop-opacity=".392"/></linearGradient><linearGradient gradientTransform="matrix(1.42105 0 0 1.43396 -2.105 -3.604)" gradientUnits="userSpaceOnUse" xlink:href="#c" id="H" y2="6" x2="15" y1="32" x1="15"/><linearGradient id="c"><stop offset="0" stop-color="#fff0bf"/><stop offset="1" stop-color="#fdde76"/></linearGradient><linearGradient spreadMethod="reflect" gradientTransform="matrix(1.03629 0 0 .89404 7.13 -1.585)" gradientUnits="userSpaceOnUse" xlink:href="#d" id="D" y2="15.738" x2="25.525" y1="35.429" x1="25.525"/><linearGradient id="d"><stop offset="0" stop-color="#969696"/><stop offset=".5" stop-color="#858585" stop-opacity=".635"/><stop offset="1" stop-color="#939393" stop-opacity="0"/></linearGradient><linearGradient gradientTransform="matrix(-1.41026 0 0 1.41026 65.854 -1.846)" gradientUnits="userSpaceOnUse" xlink:href="#e" id="C" y2="3.899" x2="24" y1="44" x1="24"/><linearGradient id="e"><stop offset="0" stop-color="#b67926"/><stop offset="1" stop-color="#eab41a"/></linearGradient><linearGradient gradientTransform="matrix(1.21622 0 0 .72973 2.81 7.486)" gradientUnits="userSpaceOnUse" xlink:href="#f" id="B" y2="43" x2="24" y1="5" x1="24"/><linearGradient id="f"><stop offset="0" stop-color="#fff"/><stop offset=".063" stop-color="#fff" stop-opacity=".235"/><stop offset=".951" stop-color="#fff" stop-opacity=".157"/><stop offset="1" stop-color="#fff" stop-opacity=".392"/></linearGradient><linearGradient gradientTransform="matrix(.97973 0 0 .994 8.44 5.168)" gradientUnits="userSpaceOnUse" xlink:href="#g" id="A" y2="24.628" x2="20.055" y1="15.298" x1="16.626"/><linearGradient id="g"><stop offset="0" stop-color="#fff"/><stop offset="1" stop-color="#fff" stop-opacity="0"/></linearGradient><linearGradient spreadMethod="reflect" gradientTransform="matrix(1.03629 0 0 .89404 7.13 -3.552)" gradientUnits="userSpaceOnUse" xlink:href="#h" id="z" y2="15.738" x2="25.525" y1="30.189" x1="25.525"/><linearGradient id="h"><stop offset="0" stop-color="#fff"/><stop offset="1" stop-color="#fff" stop-opacity="0"/></linearGradient><linearGradient gradientTransform="matrix(1.03423 0 0 .95412 7.278 -1.357)" gradientUnits="userSpaceOnUse" xlink:href="#i" id="y" y2="20.443" x2="23.904" y1="35.75" x1="23.904"/><linearGradient id="i"><stop offset="0"/><stop offset=".5" stop-opacity=".498"/><stop offset="1" stop-opacity="0"/></linearGradient><linearGradient spreadMethod="reflect" gradientTransform="matrix(1.03629 0 0 .89404 7.13 .078)" gradientUnits="userSpaceOnUse" xlink:href="#j" id="x" y2="15.738" x2="25.525" y1="30.189" x1="25.525"/><linearGradient id="j"><stop offset="0" stop-color="#fff"/><stop offset="1" stop-color="#fff" stop-opacity="0"/></linearGradient><linearGradient spreadMethod="reflect" gradientTransform="matrix(1.03629 0 0 .89404 7.13 -1.585)" gradientUnits="userSpaceOnUse" xlink:href="#k" id="w" y2="15.738" x2="25.525" y1="30.189" x1="25.525"/><linearGradient id="k"><stop offset="0" stop-color="#a0a0a0"/><stop offset=".5" stop-color="#8f8f8f" stop-opacity=".635"/><stop offset="1" stop-color="#9d9d9d" stop-opacity="0"/></linearGradient><linearGradient gradientTransform="matrix(1.02222 0 0 .84848 7.467 1.242)" gradientUnits="userSpaceOnUse" xlink:href="#l" id="v" y2="45.244" x2="20.053" y1="10.637" x1="20.053"/><linearGradient id="l"><stop offset="0" stop-color="#f4f4f4"/><stop offset="1" stop-color="#dbdbdb"/></linearGradient><linearGradient id="m"><stop offset="0" stop-color="#181818"/><stop offset="1" stop-color="#181818" stop-opacity="0"/></linearGradient><linearGradient id="n"><stop offset="0" stop-color="#181818"/><stop offset="1" stop-color="#181818" stop-opacity="0"/></linearGradient><linearGradient gradientUnits="userSpaceOnUse" xlink:href="#o" id="t" y2="39.999" x2="25.058" y1="47.028" x1="25.058"/><linearGradient id="o"><stop offset="0" stop-color="#181818" stop-opacity="0"/><stop offset=".5" stop-color="#181818"/><stop offset="1" stop-color="#181818" stop-opacity="0"/></linearGradient><linearGradient id="q"><stop offset="0" stop-color="#956500"/><stop offset="1" stop-color="#956500" stop-opacity="0"/></linearGradient><linearGradient id="p"><stop offset="0" stop-color="#fff3cb"/><stop offset=".313" stop-color="#fdde76"/><stop offset=".697" stop-color="#f9c440"/><stop offset="1" stop-color="#e48b20"/></linearGradient><linearGradient gradientTransform="matrix(1.33333 0 0 1.33333 -1.5 .167)" xlink:href="#q" id="F" x1="4.892" y1="37.093" x2="7.5" y2="37.093" gradientUnits="userSpaceOnUse"/><linearGradient gradientTransform="matrix(-1.33333 0 0 1.33333 65.5 .167)" xlink:href="#q" id="G" x1="4.892" y1="37.093" x2="7.5" y2="37.093" gradientUnits="userSpaceOnUse"/><radialGradient gradientTransform="matrix(2.00378 0 0 1.4 27.988 -17.4)" gradientUnits="userSpaceOnUse" xlink:href="#m" id="r" fy="43.5" fx="4.993" r="2.5" cy="43.5" cx="4.993"/><radialGradient gradientTransform="matrix(2.00378 0 0 1.4 -20.012 -104.4)" gradientUnits="userSpaceOnUse" xlink:href="#n" id="s" fy="43.5" fx="4.993" r="2.5" cy="43.5" cx="4.993"/><radialGradient gradientTransform="matrix(0 6.81702 -13.42985 0 166.894 -66.116)" gradientUnits="userSpaceOnUse" xlink:href="#p" id="u" fy="9.957" fx="8.336" r="12.672" cy="9.957" cx="8.867"/></defs><g opacity=".4"><path fill="url(#r)" d="M38 40h5v7h-5z" transform="matrix(1.57895 0 0 .71429 -5.895 28.429)"/><path transform="matrix(-1.57895 0 0 -.71429 -5.895 28.429)" fill="url(#s)" d="M-10-47h5v7h-5z"/><path fill="url(#t)" d="M10 40h28v7H10z" transform="matrix(1.57895 0 0 .71429 -5.895 28.429)"/></g><rect width="55" height="55" rx="3" ry="3" x="4.5" y="4.5" style="isolation:auto;mix-blend-mode:normal;solid-color:#000;solid-opacity:1;marker:none;filter-blend-mode:normal;filter-gaussianBlur-deviation:0" color="#000" overflow="visible" fill="url(#u)"/><path d="M55.5 39c.277 0 .5-.223.5-.5v-30c0-.277-.223-.5-.5-.5h-47c-.277 0-.5.223-.5.5v30c0 .277.223.5.5.5z" style="isolation:auto;mix-blend-mode:normal;solid-color:#000;solid-opacity:1;marker:none" color="#000" overflow="visible" fill="#e4ba39" stroke-linecap="round" stroke-linejoin="round"/><path d="M16 39.063V42h3v4.094h26V42h3v-2.938H16z" style="marker:none" color="#000" overflow="visible" fill="#b3b3b3"/><path d="M19.012 43.5h25.976" opacity=".2" fill="none" stroke="#000"/><path d="M19.308 45.397h25.384" opacity=".17" fill="none" stroke="#000"/><rect width="46" height="29" rx="2.821" ry="2.821" x="9" y="11" style="marker:none" overflow="visible" fill="#8f8f8f" fill-rule="evenodd"/><rect width="46" height="28" rx="1.41" ry="1.41" x="9" y="11" style="marker:none" overflow="visible" fill="url(#v)" fill-rule="evenodd"/><path d="M26.463 25.683L12.498 37.871zm11.107.056l14.062 11.908z" style="marker:none" overflow="visible" fill="none" stroke="url(#w)"/><path d="M26.463 27.346l-12.796 11zm11.107.056l12.763 10.944z" style="marker:none" overflow="visible" opacity=".7" fill="none" stroke="url(#x)"/><path d="M15.899 19.072l16.2 12.517 16.003-12.517" opacity=".06" fill="none" stroke="url(#y)"/><path d="M10.484 11.077L32 27.74l21.842-16.775" style="marker:none" overflow="visible" opacity=".7" fill="none" stroke="url(#z)"/><path d="M10.978 10.846c-.806 0-1.542.446-1.542 1.124l.015 17.21c1.298-.019 44.128-6.759 45.113-7.083V12.19c0-.518-.68-1.343-1.378-1.343z" opacity=".2" fill="url(#A)" fill-rule="evenodd"/><rect width="45" height="27" rx=".705" ry=".705" x="9.5" y="11.5" fill="none" stroke="url(#B)" stroke-linecap="round" stroke-linejoin="round"/><path d="M8.936 8.5c-.464 0-.436.042-.436.38v28.78c0 .627-.08.84.745.84h7.313c1.74 0 2.942 1.351 2.942 3.262V45.5h25v-4.21c0-1.408 1.358-2.79 2.763-2.79H55c.51 0 .499-.016.499-.523V8.863c0-.49-.021-.363-.456-.363z" style="marker:none" color="#000" overflow="visible" opacity=".3" fill="none" stroke="#b67926"/><rect width="47" height="29" rx="2.115" ry="2.115" x="8.5" y="10.5" style="marker:none" overflow="visible" opacity=".1" fill="none" stroke="#000"/><path d="M56.905 42.569c1.35-.074 2.522-1.246 2.595-2.595m-14.062 6.834v-4.099c0-.078.054-.132.132-.132h10.985M45.43 46.014v.794c0 1.562-1.29 2.692-2.853 2.692H21.423c-1.562 0-2.857-1.13-2.857-2.692v-4.099a.126.126 0 00-.132-.132s-9.795.01-11.331-.008c-1.35-.074-2.521-1.246-2.595-2.595" style="marker:none" color="#000" overflow="visible" opacity=".1" fill="none" stroke="url(#C)" stroke-linecap="round" stroke-linejoin="round"/><path d="M10.484 13.044L32 29.707l21.842-16.775" style="marker:none" overflow="visible" fill="none" stroke="url(#D)"/><path d="M19.012 41.5h25.976" opacity=".2" fill="none" stroke="#000"/><path d="M56.905 43.569c.282-.016.556-.08.814-.182m-51.464-.014c.268.111.554.18.848.196 1.536.018 10.331.008 10.331.008.079 0 .133.054.133.132v3.5c0 1.562 1.839 3.291 3.401 3.291h22.164c1.562 0 3.298-1.754 3.298-3.316l.008-3.475c0-.078.055-.132.133-.132h9.984" style="marker:none" color="#000" overflow="visible" fill="none" stroke="url(#E)" stroke-linecap="round" stroke-linejoin="round"/><path d="M4.5 38.936v17.897A2.66 2.66 0 007.167 59.5H8.5V42H7.367C6.259 42 5 40.895 5 39.787z" style="marker:none" color="#000" overflow="visible" opacity=".2" fill="url(#F)"/><rect width="55" height="55" rx="3" ry="3" x="4.5" y="4.5" style="marker:none;isolation:auto;mix-blend-mode:normal;solid-color:#000;solid-opacity:1;filter-blend-mode:normal;filter-gaussianBlur-deviation:0" color="#000" overflow="visible" fill="none" fill-rule="evenodd" stroke="#956500" opacity=".5"/><path d="M59.5 38.936v17.897a2.66 2.66 0 01-2.667 2.667H55.5V42h1.133C57.741 42 59 40.895 59 39.787z" style="marker:none" color="#000" overflow="visible" opacity=".2" fill="url(#G)"/><path d="M7.5 5A2.495 2.495 0 005 7.5v32C5 40.885 6.115 42 7.5 42H19v-.5c0-1.385-1.115-2.5-2.5-2.5h-8a.499.499 0 01-.5-.5v-30c0-.277.223-.5.5-.5h47c.277 0 .5.223.5.5v30c0 .277-.223.5-.5.5h-8a2.495 2.495 0 00-2.5 2.5v.5h11.5c1.385 0 2.5-1.115 2.5-2.5v-32C59 6.115 57.885 5 56.5 5h-49zM19 43.5v3c0 1.385 1.115 2.5 2.5 2.5h21c1.385 0 2.5-1.115 2.5-2.5v-3c0 1.385-1.115 2.5-2.5 2.5h-21a2.495 2.495 0 01-2.5-2.5z" style="marker:none" color="#000" overflow="visible" fill="url(#H)"/><rect width="53" height="53" rx="2" ry="2" x="5.5" y="5.5" opacity=".8" fill="none" stroke="url(#I)" stroke-linecap="round" stroke-linejoin="round"/></svg>