<svg xmlns="http://www.w3.org/2000/svg" xmlns:xlink="http://www.w3.org/1999/xlink" width="48" height="48"><defs><linearGradient id="a"><stop offset="0" stop-color="#fff"/><stop offset=".508" stop-color="#fff" stop-opacity=".235"/><stop offset=".835" stop-color="#fff" stop-opacity=".157"/><stop offset="1" stop-color="#fff" stop-opacity=".392"/></linearGradient><linearGradient id="b"><stop offset="0"/><stop offset="1" stop-opacity="0"/></linearGradient><linearGradient x1="71.204" y1="7.831" x2="71.204" y2="42.884" id="n" xlink:href="#a" gradientUnits="userSpaceOnUse" gradientTransform="matrix(.51351 0 0 .51351 -.836 22.979)"/><linearGradient id="c"><stop offset="0" stop-color="#fafafa"/><stop offset="1" stop-color="#e1e1e1"/></linearGradient><linearGradient y2="5.176" x2="-95.838" y1="54.2" x1="-95.838" gradientTransform="matrix(.8075 0 0 .83374 113.012 -2.359)" gradientUnits="userSpaceOnUse" id="l" xlink:href="#d"/><linearGradient id="d"><stop offset="0" stop-opacity=".322"/><stop offset="1" stop-opacity=".278"/></linearGradient><linearGradient id="f"><stop offset="0" stop-color="#90dbec"/><stop offset=".262" stop-color="#42baea"/><stop offset=".705" stop-color="#3689e6"/><stop offset="1" stop-color="#2b63a0"/></linearGradient><linearGradient id="e"><stop offset="0" stop-color="#fff"/><stop offset=".508" stop-color="#fff" stop-opacity=".235"/><stop offset=".835" stop-color="#fff" stop-opacity=".157"/><stop offset="1" stop-color="#fff" stop-opacity=".392"/></linearGradient><linearGradient xlink:href="#e" id="j" gradientUnits="userSpaceOnUse" gradientTransform="matrix(1.05405 0 0 1.05405 -51.611 -2.728)" x1="71.204" y1="6.238" x2="71.204" y2="44.341"/><radialGradient cx="62.625" cy="4.625" r="10.625" fx="62.625" fy="4.625" id="k" xlink:href="#b" gradientUnits="userSpaceOnUse" gradientTransform="matrix(1.12941 0 0 .28235 -34.73 43.694)"/><radialGradient r="20" fy="8.45" fx="6.275" cy="8.45" cx="6.275" gradientTransform="matrix(0 1.21894 -1.2895 0 46.896 18.351)" gradientUnits="userSpaceOnUse" id="m" xlink:href="#c"/><radialGradient xlink:href="#f" id="i" gradientUnits="userSpaceOnUse" gradientTransform="matrix(0 5 -5.2894 0 68.694 -17.99)" cx="1.198" cy="8.45" fx="1.198" fy="8.45" r="20"/><radialGradient xlink:href="#b" id="g" gradientUnits="userSpaceOnUse" gradientTransform="matrix(.38235 0 0 .11152 -5.925 36.336)" cx="99.189" cy="185.297" fx="99.189" fy="185.297" r="62.769"/><radialGradient xlink:href="#b" id="h" gradientUnits="userSpaceOnUse" gradientTransform="matrix(.2549 0 0 .07966 6.716 44.24)" cx="99.189" cy="185.297" fx="99.189" fy="185.297" r="62.769"/></defs><g stroke-width="1.406"><path d="M56 57.002a24 6.999 0 11-48 0 24 6.999 0 1148 0z" opacity=".2" fill="url(#g)" transform="matrix(.70833 0 0 .71428 1.333 .785)"/><path d="M48 59.002a16 4.999 0 11-32 0 16 4.999 0 1132 0z" opacity=".4" fill="url(#h)" transform="matrix(.70833 0 0 .71428 1.333 .785)"/></g><path d="M24 3.5C12.689 3.5 3.5 12.689 3.5 24S12.689 44.5 24 44.5 44.5 35.311 44.5 24 35.311 3.5 24 3.5z" style="marker:none" color="#000" fill="url(#i)" overflow="visible"/><path d="M43.5 24c0 10.77-8.731 19.5-19.5 19.5-10.77 0-19.5-8.73-19.5-19.5S13.23 4.5 24 4.5c10.769 0 19.5 8.73 19.5 19.5h0z" style="marker:none" opacity=".5" color="#000" fill="none" stroke="url(#j)" stroke-linecap="round" stroke-linejoin="round" overflow="visible"/><path d="M24 3.5C12.689 3.5 3.5 12.689 3.5 24S12.689 44.5 24 44.5 44.5 35.311 44.5 24 35.311 3.5 24 3.5z" style="marker:none" opacity=".5" color="#000" fill-opacity="0" stroke="#00537d" stroke-linecap="round" stroke-linejoin="round" overflow="visible"/><path style="marker:none" d="M24 9C15.168 9 8 16.168 8 25s7.168 16 16 16 16-7.168 16-16S32.832 9 24 9zm-1.875 3.469a11.041 11.041 0 00-4.875 2.875c-2.626 2.645-4.241 6.397-3.938 10.187a10.765 10.765 0 001.72 5 21.18 21.18 0 01-2.126.5C11.92 29.224 11.25 27.202 11.25 25c0-6.401 4.732-11.618 10.875-12.531zm4.781.281c4.38 1.032 7.883 4.195 9.219 8.438a22.89 22.89 0 01-5.375 6.906c-1.114.965-2.3 1.792-3.594 2.375-1.285.579-2.685.92-4.031.843-.364-.02-.678-.205-1.031-.28 2.03-1.344 3.952-2.901 5.531-4.75 1.361-1.595 2.601-3.46 3.094-5.657.245-1.093.302-2.257.062-3.406-.24-1.147-.76-2.239-1.593-3.125-.627-.667-1.46-1.012-2.282-1.344zm-2.812 2.281a3.538 3.538 0 012.093.688c.517.39.925.974 1.157 1.625.23.645.304 1.35.218 2.093-.168 1.468-.947 2.919-1.937 4.22-1.764 2.317-4.085 4.187-6.719 5.5-.055.027-.13.034-.187.062-.317-.343-.645-.686-.875-1.094-.698-1.236-.955-2.768-.813-4.25.143-1.49.68-2.939 1.407-4.344.835-1.618 1.94-3.084 3.375-3.875.712-.393 1.514-.626 2.28-.625zm12.468 11.625C35.743 32.906 30.477 37.75 24 37.75c-3.394 0-6.406-1.4-8.688-3.563.853-.256 1.71-.5 2.532-.843.574.388 1.149.777 1.812 1.031 2.43.932 5.131.789 7.5-.031 2.362-.818 4.397-2.261 6.157-3.907 1.217-1.137 2.273-2.43 3.25-3.78z" opacity=".05" color="#000" overflow="visible"/><path d="M24 10c-8.284 0-15 6.716-15 15 0 8.284 6.716 15 15 15 8.284 0 15-6.716 15-15 0-8.284-6.716-15-15-15zm0 1.25c6.298 0 11.608 4.235 13.236 10.012a23.857 23.857 0 01-5.828 7.602c-1.168 1.011-2.442 1.912-3.85 2.547-1.408.635-2.957.995-4.499.906a7.783 7.783 0 01-3.317-.951 25.02 25.02 0 007.1-5.725c1.304-1.527 2.444-3.262 2.883-5.22.22-.98.257-2.006.052-2.988-.206-.983-.66-1.919-1.347-2.65a5.408 5.408 0 00-2.499-1.481 6.568 6.568 0 00-2.915-.105c-1.93.352-3.652 1.474-5.033 2.865-2.435 2.454-3.94 5.916-3.664 9.361.138 1.723.715 3.416 1.704 4.833.221.317.464.618.724.903a22.494 22.494 0 01-4.447 1.066c-1.3-2.1-2.05-4.574-2.05-7.225 0-7.594 6.156-13.75 13.75-13.75zm.087 2.778c.967.001 1.94.294 2.711.877.695.525 1.21 1.271 1.502 2.092.292.82.367 1.711.267 2.576-.199 1.73-1.072 3.317-2.126 4.704-1.868 2.454-4.35 4.418-7.11 5.793-.282.141-.57.275-.858.403a7.1 7.1 0 01-1.507-1.843c-.82-1.452-1.09-3.177-.932-4.836.16-1.66.729-3.26 1.494-4.74.887-1.718 2.096-3.345 3.79-4.279.846-.467 1.803-.748 2.77-.747zm13.54 9.131c.08.602.123 1.217.123 1.841 0 7.594-6.156 13.75-13.75 13.75a13.722 13.722 0 01-10.598-4.99 24.753 24.753 0 004.537-1.507 8.46 8.46 0 002.092 1.172c2.158.827 4.607.707 6.79-.048 2.184-.756 4.12-2.113 5.809-3.691a25 25 0 004.997-6.527z" style="marker:none" color="#000" overflow="visible" opacity=".15"/><path d="M24 9C15.716 9 9 15.716 9 24c0 8.284 6.716 15 15 15 8.284 0 15-6.716 15-15 0-8.284-6.716-15-15-15zm0 1.25c6.298 0 11.608 4.235 13.236 10.012a23.857 23.857 0 01-5.828 7.602c-1.168 1.011-2.442 1.912-3.85 2.547-1.408.635-2.957.995-4.499.906a7.783 7.783 0 01-3.317-.951 25.02 25.02 0 007.1-5.725c1.304-1.527 2.444-3.262 2.883-5.22.22-.98.257-2.006.052-2.988-.206-.983-.66-1.919-1.347-2.65a5.408 5.408 0 00-2.499-1.481 6.568 6.568 0 00-2.915-.105c-1.93.352-3.652 1.474-5.033 2.865-2.435 2.454-3.94 5.916-3.664 9.361.138 1.723.715 3.416 1.704 4.833.221.317.464.618.724.903a22.494 22.494 0 01-4.447 1.066c-1.3-2.1-2.05-4.574-2.05-7.225 0-7.594 6.156-13.75 13.75-13.75zm.087 2.778c.967.001 1.94.294 2.711.877.695.525 1.21 1.271 1.502 2.092.292.82.367 1.711.267 2.576-.199 1.73-1.072 3.317-2.126 4.704-1.868 2.454-4.35 4.418-7.11 5.793-.282.141-.57.275-.858.403a7.1 7.1 0 01-1.507-1.843c-.82-1.452-1.09-3.177-.932-4.836.16-1.66.729-3.26 1.494-4.74.887-1.718 2.096-3.345 3.79-4.279.846-.467 1.803-.748 2.77-.747zm13.54 9.131c.08.602.123 1.217.123 1.841 0 7.594-6.156 13.75-13.75 13.75a13.722 13.722 0 01-10.598-4.99 24.753 24.753 0 004.537-1.507 8.46 8.46 0 002.092 1.172c2.158.827 4.607.707 6.79-.048 2.184-.756 4.12-2.113 5.809-3.691a25 25 0 004.997-6.527z" style="marker:none" color="#000" fill="#fff" overflow="visible"/><path d="M48 45c0 1.657-5.373 3-12 3s-12-1.343-12-3 5.373-3 12-3 12 1.343 12 3z" style="marker:none" opacity=".3" fill="url(#k)" fill-rule="evenodd" overflow="visible"/><path d="M36 25.5c-5.794 0-10.5 4.706-10.5 10.5S30.206 46.5 36 46.5 46.5 41.794 46.5 36 41.794 25.5 36 25.5z" style="marker:none" opacity=".8" color="#000" fill="none" fill-opacity="0" stroke="url(#l)" overflow="visible"/><path d="M36 26c-5.518 0-10 4.482-10 10s4.482 10 10 10 10-4.482 10-10-4.482-10-10-10z" style="marker:none" color="#000" fill="url(#m)" overflow="visible"/><path d="M31.523 37l-.023 1 4.5 5 4.5-5-.008-1z" style="marker:none" color="#000" fill="#fff" overflow="visible"/><path d="M35 31v6h-3.5l4.5 5 4.5-5H37v-6z" style="marker:none" color="#000" fill="#208ae4" overflow="visible"/><path style="marker:none" d="M35 31v1h2v-1zm-3.5 6l.903 1H35v-1zm5.5 0v1h2.607l.893-1z" opacity=".15" color="#000" overflow="visible"/><path d="M45.5 36a9.5 9.5 0 11-19 0 9.5 9.5 0 0119 0h0z" style="marker:none" color="#000" fill="none" stroke="url(#n)" stroke-linecap="round" stroke-linejoin="round" overflow="visible"/></svg>