<svg xmlns="http://www.w3.org/2000/svg" xmlns:xlink="http://www.w3.org/1999/xlink" height="48" width="48"><defs><linearGradient id="a"><stop offset="0" stop-color="#fff"/><stop offset="0" stop-color="#fff" stop-opacity=".235"/><stop offset="1" stop-color="#fff" stop-opacity=".157"/><stop offset="1" stop-color="#fff" stop-opacity=".392"/></linearGradient><linearGradient id="b"><stop offset="0" stop-color="#f4f4f4"/><stop offset="1" stop-color="#dbdbdb"/></linearGradient><linearGradient id="c"><stop offset="0"/><stop offset="1" stop-opacity="0"/></linearGradient><linearGradient id="d"><stop offset="0" stop-opacity="0"/><stop offset=".5"/><stop offset="1" stop-opacity="0"/></linearGradient><linearGradient id="e"><stop offset="0" stop-opacity=".318"/><stop offset="1" stop-opacity=".24"/></linearGradient><linearGradient gradientTransform="matrix(1.0502 0 0 .99322 -1.682 -.764)" gradientUnits="userSpaceOnUse" xlink:href="#f" id="g" y2="13.664" x2="16.887" y1="24.24" x1="28.534"/><linearGradient id="f"><stop offset="0" stop-color="#667885" stop-opacity=".302"/><stop offset="1" stop-color="#fff" stop-opacity="0"/></linearGradient></defs><path style="isolation:auto;mix-blend-mode:normal;solid-color:#000;solid-opacity:1;marker:none" d="M7 1l34 .003V44H7z" color="#000" overflow="visible" opacity=".2" fill="#95a3ab"/><path d="M6.5.5l35 .003V44.5h-35V.5z" fill="none" stroke="#667885" stroke-linejoin="round"/><path d="M15.493 34.578c4.386 2.814 13.963-.95 6.001-11.025-7.89-9.983 7.839-16.53 12.506-4.985" fill="url(#g)" fill-rule="evenodd" stroke="#667885"/><path d="M14.438 14.481l15.13 18.921" fill="none" stroke="#667885"/><path d="M30.5 33.5a1 1 0 11-2 .001 1 1 0 012-.001h0zm-15-19a1 1 0 11-2 .001 1 1 0 012-.001h0z" fill="#e6e6e6" stroke="#667885"/><path d="M20 22h3v3h-3zm12-5h3v3h-3zM13 33h3v3h-3z" style="isolation:auto;mix-blend-mode:normal;solid-color:#000;solid-opacity:1;marker:none;filter-blend-mode:normal;filter-gaussianBlur-deviation:0" fill="#667885" color="#000" overflow="visible"/></svg>