<svg xmlns="http://www.w3.org/2000/svg" width="48" height="48"><defs><linearGradient id="a"><stop offset="0" stop-color="#fff"/><stop offset="0" stop-color="#fff" stop-opacity=".235"/><stop offset="1" stop-color="#fff" stop-opacity=".157"/><stop offset="1" stop-color="#fff" stop-opacity=".392"/></linearGradient><linearGradient id="b"><stop offset="0" stop-color="#f4f4f4"/><stop offset="1" stop-color="#dbdbdb"/></linearGradient><linearGradient id="c"><stop offset="0"/><stop offset="1" stop-opacity="0"/></linearGradient><linearGradient id="d"><stop offset="0" stop-opacity="0"/><stop offset=".5"/><stop offset="1" stop-opacity="0"/></linearGradient><linearGradient id="e"><stop offset="0" stop-opacity=".318"/><stop offset="1" stop-opacity=".24"/></linearGradient><linearGradient id="f"><stop offset="0" stop-color="#90dbec"/><stop offset=".262" stop-color="#55c1ec"/><stop offset=".705" stop-color="#3689e6"/><stop offset="1" stop-color="#2b63a0"/></linearGradient></defs><path style="isolation:auto;mix-blend-mode:normal;solid-color:#000;solid-opacity:1;marker:none;filter-blend-mode:normal;filter-gaussianBlur-deviation:0" d="M7 1l34 .003V44H7z" fill="#95a3ab" color="#000" overflow="visible" opacity=".2"/><path d="M6.5.5l35 .003V44.5h-35V.5z" fill="none" stroke="#667885" stroke-linejoin="round"/><path style="line-height:125%;-inkscape-font-specification:'Open Sans Semi-Bold';text-align:start;isolation:auto;mix-blend-mode:normal;solid-color:#000;solid-opacity:1;marker:none" d="M19 15c-1.445 0-2.211.214-2.938.656-.719.436-1.062 1.13-1.062 2.063V20.5c0 .556-.248.944-.688 1.219-.432.269-1.413.437-2.312.437v1.688c1.772 0 3 .576 3 1.687v2.532c0 1.021.327 1.795 1 2.25.68.46 1.461.675 3 .687v-1.625c-.766-.012-1.16-.155-1.5-.406-.34-.251-.5-.604-.5-1.094v-2.688c0-1.2-.6-1.91-2.125-2.125v-.125C16.4 22.704 17 21.97 17 20.782v-2.656c0-.49.16-.818.5-1.063.346-.25.74-.407 1.5-.437V15zm10 0v1.625c.76.03 1.154.187 1.5.438.34.244.5.572.5 1.062v2.656c0 1.19.6 1.923 2.125 2.157v.125C31.6 23.277 31 23.986 31 25.188v2.687c0 .49-.16.843-.5 1.094-.34.25-.734.394-1.5.406V31c1.539-.012 2.32-.227 3-.688.673-.454 1-1.228 1-2.25v-2.53c0-1.112 1.228-1.688 3-1.688v-1.688c-.9 0-1.88-.168-2.313-.437-.44-.275-.687-.663-.687-1.219v-2.781c0-.932-.343-1.627-1.063-2.063C31.212 15.214 30.445 15 29 15z" color="#000" font-weight="600" font-size="19" font-family="Open Sans" letter-spacing="0" word-spacing="0" overflow="visible" fill="#667885"/></svg>